<?xml version="1.0" encoding="UTF-8"?>
<svg width="4096" height="4096" xmlns="http://www.w3.org/2000/svg">
 <g>
  <path d="m4160 4155.9h-4224v-4229h4224z" fill="#241f31"/>
  <path d="m-64-73.13c150.92 74.4 302.06 148.8 447.26 227.11 145.2 78.314 284.46 160.54 421.52 268.62 137.28 107.68 272.14 241.99 375.54 418.98 103.4 176.99 175.12 397.05 311.3 545.46s336.38 225.16 394.24 449.92c58.08 224.37-26.4 596.76 31.9 857.94 58.3 261.18 259.16 411.15 348.48 635.91 89.54 225.15 67.76 525.1 45.76 825.04h-2376z" fill="#30223b"/>
  <path d="m-64 531.07c129.36 63.826 258.94 127.65 383.24 194.61 124.52 67.35 243.98 137.44 361.46 230.24 117.48 92.411 233.2 207.14 321.86 359.07 88.66 151.54 150.26 340.28 266.86 467.54 116.6 127.26 288.42 193.04 337.92 385.7 49.72 192.26-22.66 511.39 27.28 735.37 49.94 223.59 222.2 352.42 298.76 545.07 76.78 192.65 58.08 449.92 39.16 707.18h-2036.5z" fill="#4e254a"/>
  <path d="m-64 1135.3c107.8 53.254 215.82 106.12 319.44 162.11s203.28 114.73 301.18 191.87c97.9 77.14 194.26 172.68 268.18 299.16 73.7 126.48 125.18 283.5 222.42 389.62s240.24 160.94 281.6 321.48c41.36 160.15-18.92 426.42 22.66 612.81 41.58 186.39 185.24 293.68 249.04 454.22 64.02 160.54 48.18 375.13 32.56 589.32h-1697.1z" fill="#70234e"/>
  <path d="m-64 1739.5c86.24 42.29 172.7 84.97 255.64 129.61s162.58 91.628 240.9 153.5c78.32 61.476 155.32 138.22 214.5 239.25 58.96 101.42 100.1 227.11 177.98 311.69 77.66 84.971 192.06 128.83 225.28 257.26 33 128.04-15.18 341.06 18.04 490.25 33.44 149.19 148.06 234.94 199.32 363.38 51.04 128.44 38.5 299.94 25.96 471.45h-1357.6z" fill="#921f48"/>
  <path d="m-64 2343.3c64.68 32.11 129.36 63.827 191.62 97.502s121.88 68.917 180.84 115.12c58.74 46.206 116.38 103.77 160.82 179.34 44.22 75.966 75.02 170.34 133.32 234.16 58.52 63.436 144.32 96.328 169.18 192.65 24.64 96.327-11.44 255.7 13.42 367.69 25.08 111.99 111.1 176.21 149.6 272.54 38.28 96.326 28.82 225.15 19.58 353.59h-1018.4z" fill="#af2438"/>
  <path d="m-64 2947.5c43.12 21.537 86.24 42.682 127.82 65.002 41.36 22.32 81.18 45.814 120.34 76.748s77.88 68.917 107.36 119.82c29.48 50.513 50.16 113.16 88.88 155.85 38.94 42.29 96.14 64.218 112.64 128.44 16.72 64.218-7.48 170.33 9.24 245.12 16.5 74.399 73.92 117.47 99.44 181.69 25.74 64.218 19.36 149.97 13.2 235.73h-678.92z" fill="#c1381d"/>
  <path d="m-64 3551.7c21.56 10.573 43.12 21.145 63.8 32.5 20.9 11.356 40.7 23.103 60.28 38.375 19.58 15.271 38.94 34.458 53.68 59.91 14.74 25.061 25.08 56.778 44.44 77.923 19.58 21.145 48.18 32.11 56.32 64.218 8.36 32.11-3.74 85.363 4.62 122.56 8.36 37.2 36.96 58.736 49.72 90.845 12.76 32.11 9.68 75.182 6.6 117.86h-339.46z" fill="#c64600"/>
  <path d="m4160 4155.9c-165.44 9.006-331.1 17.62-457.16-139.01-126.06-156.24-212.52-478.11-365.42-555.64-152.9-77.14-372.24 90.062-497.42-18.012s-155.98-491.03-237.16-744.77c-81.18-253.74-212.52-377.48-290.4-574.44-77.88-196.57-102.3-465.97-183.04-700.13-80.52-234.16-217.58-433.47-284.68-677.42-66.88-243.56-63.8-531.36-60.72-819.56h2376z" fill="#30223b"/>
  <path d="m4160 3551.7c-141.9 7.44-283.8 15.271-391.82-119.04-108.02-133.92-182.16-409.98-313.28-476.15s-319 76.748-426.36-15.663-133.76-420.94-203.28-638.26-182.16-323.83-248.82-492.21c-66.88-168.77-87.78-399.4-156.86-600.28-69.3-200.88-186.56-371.6-243.98-580.7-57.42-208.71-54.78-455.79-52.14-702.48h2036.5z" fill="#4e254a"/>
  <path d="m4160 2947.5c-118.14 6.266-236.5 12.531-326.48-99.067-89.98-111.99-151.8-341.84-261.14-397.06-109.12-55.211-265.98 64.218-355.3-12.921-89.32-77.14-111.32-350.85-169.4-531.76-57.86-181.3-151.8-269.79-207.24-410.37-55.66-140.57-73.04-332.84-130.9-500.04-57.64-167.59-155.54-309.73-203.28-483.98-47.74-173.86-45.54-379.82-43.34-585.4h1697.1z" fill="#70234e"/>
  <path d="m4160 2343.3c-94.6 5.09-189.2 10.181-261.14-79.097-72.16-89.67-121.44-273.32-208.78-317.57-87.56-44.247-212.96 51.296-284.46-10.572-71.5-61.477-89.1-280.37-135.52-425.25-46.2-144.88-121.44-216.15-165.88-328.53-44.44-112.38-58.3-266.27-104.5-399.8-46.2-133.92-124.52-247.86-162.8-387.26-38.28-139.01-36.3-303.86-34.54-468.32h1357.6z" fill="#921f48"/>
  <path d="m4160 1739.5c-70.84 3.524-141.9 7.44-195.8-59.52-54.12-67.35-91.08-205.18-156.64-238.47-65.56-32.892-159.72 38.766-213.18-7.44-53.68-46.597-66.88-210.67-101.64-319.52-34.98-108.47-91.08-161.72-124.52-245.91s-43.78-199.7-78.54-300.34c-34.54-100.24-93.28-185.6-121.88-290.16-28.82-104.55-27.5-227.9-26.18-351.24h1018.4z" fill="#af2438"/>
  <path d="m4160 1135.3c-47.3 2.35-94.6 5.09-130.68-39.94-35.86-44.64-60.72-136.66-104.28-158.59-43.78-21.928-106.48 25.452-142.12-5.09-35.86-30.935-44.66-140.58-67.76-213.02-23.32-72.44-60.72-107.68-82.94-164.07-22.44-55.995-29.26-133.13-52.36-200.09-23.1-66.96-62.26-123.74-81.4-193.44s-18.26-151.93-17.38-234.16h678.92z" fill="#c1381d"/>
  <path d="m4160 531.07c-23.54 1.175-47.3 2.35-65.34-19.97s-30.36-68.134-52.14-79.49c-21.78-10.964-53.24 12.922-71.06-2.349-17.82-15.663-22.22-70.091-33.88-106.51-11.66-36.024-30.36-54.037-41.58-81.838-11-28.194-14.52-66.568-26.18-100.24-11.44-33.284-31.02-61.868-40.48-96.718-9.68-34.85-9.24-75.965-8.8-117.08h339.46z" fill="#c64600"/>
 </g>
</svg>
