<?xml version="1.0" encoding="UTF-8"?>
<svg class="generator__canvas" width="4096" height="4096" xmlns="http://www.w3.org/2000/svg">
 <path d="m-241.29-81.057h4578.6v4258.1h-4578.6z" style="-inkscape-stroke:none;fill:#26a269;stroke-linecap:round;stroke-width:39.861"/>
 <path d="m151.91 121.6-63.682-33.552a10.18 10.18 0 1 0-9.503 18.008l63.702 33.552a10.176 10.176 0 1 0 9.483-18.008zm-1.799 209.6-57.23-43.7a10.177 10.177 0 1 0-12.337 16.19l57.21 43.68a10.183 10.183 0 1 0 12.357-16.19zm-2.991 209.56-48.549-53.163a10.18 10.18 0 1 0-15.036 13.726l48.549 53.183a10.186 10.186 0 1 0 15.036-13.746zm-3.187 208-40.337-59.635a10.187 10.187 0 1 0-16.874 11.418l40.337 59.635a10.187 10.187 0 1 0 16.874-11.418zm-2.288 206.08-34.803-62.998a10.182 10.182 0 1 0-17.832 9.835l34.803 63.017a10.187 10.187 0 1 0 17.832-9.854zm-1.447 204.97-31.44-64.778a10.183 10.183 0 1 0-18.32 8.897l31.42 64.777a10.183 10.183 0 1 0 18.32-8.896zm-1.818 205.1-27.276-66.576a10.181 10.181 0 1 0-18.848 7.704l27.295 66.615a10.172 10.172 0 1 0 18.829-7.704zm-3.617 206.16-19.22-69.372a10.175 10.175 0 1 0-19.612 5.435l19.22 69.372a10.175 10.175 0 1 0 19.612-5.435zm-6.883 206.86-4.77-71.816a10.18 10.18 0 1 0-20.316 1.349l4.771 71.836a10.19 10.19 0 1 0 20.335-1.369zm-10.793 205.75 16.346-70.114a10.178 10.178 0 1 0-19.826-4.615l-16.346 70.096a10.18 10.18 0 1 0 19.826 4.634zm-13.589 201.72 40.493-59.518a10.174 10.174 0 1 0-16.815-11.458l-40.532 59.499a10.182 10.182 0 1 0 16.835 11.457zm-12.962 196.11 60.613-38.851a10.18 10.18 0 1 0-11.008-17.128l-60.594 38.85a10.183 10.183 0 1 0 10.989 17.148zm-8.642 192.36 70.721-13.472a10.181 10.181 0 1 0-3.813-20.002l-70.721 13.472a10.181 10.181 0 1 0 3.813 20.002zm-3.461 192.98 71.562 8.017a10.18 10.18 0 1 0 2.249-20.237l-71.543-8.017a10.182 10.182 0 1 0-2.268 20.237zm-0.489 197.73 69.392 19.162a10.182 10.182 0 1 0 5.416-19.631l-69.411-19.161a10.18 10.18 0 1 0-5.397 19.63zm0 204.62 69.9 17.285a10.181 10.181 0 1 0 4.888-19.768l-69.88-17.284a10.181 10.181 0 1 0-4.888 19.767zm1.193 211.75 71.973 1.564a10.18 10.18 0 1 0 0.43-20.354l-71.953-1.565a10.19 10.19 0 1 0-0.45 20.374zm6.218 216.56 67.26-25.653a10.184 10.184 0 1 0-7.273-19.025l-67.261 25.653a10.184 10.184 0 1 0 7.274 19.025zm14.547 215.33 46.437-55a10.184 10.184 0 1 0-15.564-13.14l-46.418 55.02a10.17 10.17 0 1 0 15.545 13.12zm20.96 206.53 9.15-71.405a10.181 10.181 0 1 0-20.197-2.581l-9.131 71.405a10.171 10.171 0 1 0 20.178 2.581zm235.04-3899.8-65.442-29.994a10.184 10.184 0 1 0-8.486 18.516l65.443 29.994a10.184 10.184 0 1 0 8.485-18.516zm-3.206 213.98-54.082-47.513a10.176 10.176 0 1 0-13.433 15.29l54.063 47.513a10.183 10.183 0 1 0 13.452-15.29zm-6.198 212.77-37.815-61.238a10.18 10.18 0 1 0-17.323 10.695l37.814 61.258a10.185 10.185 0 1 0 17.324-10.715zm-7.215 209.74-21.195-68.786a10.177 10.177 0 1 0-19.455 5.983l21.175 68.805a10.19 10.19 0 1 0 19.475-6.002zm-6.238 206.86-7.957-71.562a10.18 10.18 0 1 0-20.237 2.248l7.958 71.563a10.18 10.18 0 1 0 20.236-2.249zm-4.712 205.16 1.604-71.953a10.18 10.18 0 1 0-20.355-0.47l-1.603 71.954a10.17 10.17 0 1 0 20.335 0.47zm-4.223 204.44 9.854-71.308a10.174 10.174 0 1 0-20.158-2.776l-9.874 71.308a10.184 10.184 0 1 0 20.178 2.776zm-5.025 203.97 19.357-69.333a10.18 10.18 0 1 0-19.611-5.475l-19.357 69.333a10.18 10.18 0 1 0 19.611 5.475zm-6.628 203.03 31.323-64.817a10.184 10.184 0 1 0-18.34-8.857l-31.304 64.817a10.175 10.175 0 1 0 18.32 8.857zm-8.095 201.22 45.068-56.116a10.187 10.187 0 1 0-15.876-12.768l-45.108 56.135a10.18 10.18 0 1 0 15.877 12.748zm-8.408 198.67 58.032-42.605a10.176 10.176 0 1 0-12.044-16.404l-58.032 42.624a10.174 10.174 0 1 0 12.064 16.385zm-6.94 196.52 67.182-25.828a10.182 10.182 0 1 0-7.313-19.005l-67.182 25.848a10.173 10.173 0 1 0 7.312 18.985zm-4.341 196.17 71.327-9.776a10.184 10.184 0 1 0-2.776-20.178l-71.308 9.776a10.183 10.183 0 1 0 2.757 20.179zm-1.838 198.32 71.953 0.978a10.178 10.178 0 1 0 0.293-20.354l-71.973-0.978a10.178 10.178 0 1 0-0.273 20.354zm-0.235 202.7 71.934 2.777a10.175 10.175 0 1 0 0.782-20.335l-71.953-2.776a10.175 10.175 0 1 0-0.783 20.334zm1.486 208.35 71.66-6.784a10.173 10.173 0 1 0-1.916-20.257l-71.66 6.766a10.183 10.183 0 1 0 1.916 20.275zm5.592 213.36 66.42-27.764a10.175 10.175 0 1 0-7.86-18.77l-66.42 27.764a10.175 10.175 0 1 0 7.86 18.77zm12.963 214 47.845-53.789a10.18 10.18 0 1 0-15.212-13.53l-47.844 53.77a10.186 10.186 0 1 0 15.211 13.55zm20.1 207.16 12.475-70.897a10.184 10.184 0 1 0-20.061-3.52l-12.475 70.897a10.184 10.184 0 1 0 20.061 3.52zm20.472 194.86-30.013-65.423a10.184 10.184 0 1 0-18.517 8.486l30.033 65.442a10.18 10.18 0 1 0 18.497-8.505zm216.58-3893.6-67.183-25.849a10.182 10.182 0 1 0-7.312 19.006l67.182 25.848a10.182 10.182 0 1 0 7.313-19.005zm-4.224 217.74-51.97-49.8a10.171 10.171 0 1 0-14.078 14.684l51.97 49.82a10.178 10.178 0 1 0 14.078-14.704zm-9.346 215.02-28.683-66.03a10.18 10.18 0 1 0-18.673 8.115l28.684 66.028a10.18 10.18 0 1 0 18.672-8.114zm-11.36 209.95-4.301-71.856a10.186 10.186 0 1 0-20.335 1.232l4.302 71.856a10.186 10.186 0 1 0 20.334-1.232zm-9.952 205.63 15.153-70.389a10.18 10.18 0 1 0-19.904-4.282l-15.153 70.39a10.18 10.18 0 1 0 19.904 4.281zm-7.332 203.35 28.605-66.048a10.176 10.176 0 1 0-18.672-8.095l-28.625 66.049a10.185 10.185 0 1 0 18.692 8.094zm-5.475 202.47 38.128-61.062a10.18 10.18 0 1 0-17.265-10.793l-38.128 61.062a10.18 10.18 0 1 0 17.265 10.793zm-4.634 201.92 45.831-55.53a10.174 10.174 0 1 0-15.7-12.943l-45.831 55.53a10.174 10.174 0 1 0 15.7 12.943zm-4.438 201.29 52.83-48.881a10.184 10.184 0 1 0-13.823-14.958l-52.83 48.881a10.184 10.184 0 1 0 13.823 14.958zm-4.321 200.51 59.244-40.903a10.183 10.183 0 1 0-11.575-16.757l-59.244 40.904a10.183 10.183 0 1 0 11.575 16.757zm-3.891 199.9 64.484-32.007a10.183 10.183 0 1 0-9.053-18.243l-64.484 32.008a10.183 10.183 0 1 0 9.053 18.242zm-2.933 199.92 67.984-23.639a10.172 10.172 0 1 0-6.667-19.22l-68.004 23.62a10.184 10.184 0 1 0 6.687 19.24zm-1.682 200.96 69.725-17.85a10.191 10.191 0 1 0-5.045-19.749l-69.744 17.891a10.175 10.175 0 1 0 5.064 19.709zm-0.195 203.27 69.92-17.109a10.177 10.177 0 1 0-4.85-19.767l-69.92 17.088a10.184 10.184 0 1 0 4.83 19.788zm1.799 206.49 68.081-23.404a10.184 10.184 0 1 0-6.628-19.26l-68.062 23.405a10.18 10.18 0 1 0 6.609 19.26zm5.416 209.8 61.297-37.717a10.178 10.178 0 1 0-10.656-17.343l-61.317 37.736a10.174 10.174 0 1 0 10.676 17.324zm11.458 210.83 43.856-57.093a10.18 10.18 0 1 0-16.15-12.396l-43.837 57.093a10.172 10.172 0 1 0 16.13 12.396zm18.183 206.02 11.439-71.093a10.179 10.179 0 1 0-20.1-3.226l-11.439 71.073a10.19 10.19 0 1 0 20.12 3.246zm19.748 195.06-29.602-65.598a10.186 10.186 0 1 0-18.575 8.368l29.622 65.618a10.19 10.19 0 1 0 18.575-8.388zm12.123 184.44-62.08-36.446a10.18 10.18 0 1 0-10.303 17.558l62.079 36.446a10.18 10.18 0 1 0 10.304-17.558zm204.81-3877-68.727-21.45a10.18 10.18 0 1 0-6.061 19.436l68.707 21.449a10.18 10.18 0 1 0 6.062-19.435zm-4.673 220.71-51.13-50.66a10.183 10.183 0 1 0-14.332 14.469l51.15 50.64a10.176 10.176 0 1 0 14.312-14.468zm-11.966 216.62-22.153-68.492a10.18 10.18 0 1 0-19.376 6.257l22.172 68.492a10.172 10.172 0 1 0 19.357-6.257zm-14.743 209.41 8.193-71.523a10.184 10.184 0 1 0-20.237-2.308l-8.173 71.523a10.174 10.174 0 1 0 20.217 2.308zm-12.591 203.52 31.46-64.757a10.183 10.183 0 1 0-18.321-8.897l-31.46 64.758a10.183 10.183 0 1 0 18.32 8.896zm-8.682 200.94 46.144-55.255a10.189 10.189 0 1 0-15.642-13.061l-46.144 55.255a10.189 10.189 0 1 0 15.642 13.061zm-5.474 200.59 54.688-46.81a10.179 10.179 0 1 0-13.237-15.465l-54.688 46.808a10.171 10.171 0 1 0 13.237 15.447zm-3.442 201.02 59.714-40.219a10.176 10.176 0 1 0-11.38-16.874l-59.694 40.22a10.17 10.17 0 1 0 11.36 16.873zm-2.209 201.59 62.744-35.293a10.181 10.181 0 1 0-9.972-17.753l-62.763 35.292a10.186 10.186 0 1 0 9.991 17.754zm-1.408 202.11 64.582-31.793a10.187 10.187 0 1 0-8.994-18.281l-64.582 31.812a10.178 10.178 0 1 0 8.994 18.262zm-0.723 202.78 65.481-29.896a10.18 10.18 0 1 0-8.466-18.516l-65.481 29.915a10.171 10.171 0 1 0 8.466 18.497zm0.078 203.7 65.383-30.11a10.17 10.17 0 1 0-8.505-18.478l-65.403 30.111a10.174 10.174 0 1 0 8.525 18.477zm1.173 204.95 63.898-33.18a10.18 10.18 0 1 0-9.386-18.067l-63.878 33.16a10.188 10.188 0 1 0 9.386 18.087zm2.933 206.4 59.928-39.887a10.181 10.181 0 1 0-11.281-16.952l-59.929 39.887a10.181 10.181 0 1 0 11.282 16.952zm5.788 207.69 51.344-50.465a10.183 10.183 0 1 0-14.273-14.527l-51.345 50.465a10.183 10.183 0 1 0 14.274 14.527zm10.225 207.59 34.491-63.195a10.172 10.172 0 1 0-17.851-9.756l-34.51 63.193a10.18 10.18 0 1 0 17.87 9.757zm15.389 203.85 6.14-71.718a10.185 10.185 0 1 0-20.296-1.74l-6.12 71.738a10.174 10.174 0 1 0 20.276 1.72zm17.5 195.1-30.737-65.11a10.176 10.176 0 1 0-18.399 8.701l30.717 65.11a10.185 10.185 0 1 0 18.419-8.7zm11.575 184.99-61.923-36.68a10.182 10.182 0 1 0-10.382 17.519l61.942 36.68a10.177 10.177 0 1 0 10.363-17.519zm-0.978 181.25-71.816 5.24a10.185 10.185 0 1 0 1.486 20.315l71.797-5.26a10.175 10.175 0 1 0-1.486-20.295zm205.81-3856.9-69.822-17.5a10.181 10.181 0 1 0-4.967 19.748l69.822 17.52a10.181 10.181 0 1 0 4.967-19.749zm-4.693 222.9-51.032-50.758a10.183 10.183 0 1 0-14.371 14.43l51.032 50.758a10.183 10.183 0 1 0 14.371-14.43zm-13.882 217.78-17.91-69.725a10.175 10.175 0 1 0-19.71 5.065l17.891 69.724a10.175 10.175 0 1 0 19.71-5.064zm-17.206 208.64 16.6-70.037a10.177 10.177 0 1 0-19.807-4.692l-16.62 70.037a10.177 10.177 0 1 0 19.807 4.692zm-14.215 201.47 41.784-58.62a10.176 10.176 0 1 0-16.561-11.829l-41.804 58.619a10.184 10.184 0 1 0 16.581 11.83zm-9.053 198.87 56.077-45.108a10.18 10.18 0 1 0-12.748-15.877l-56.116 45.127a10.185 10.185 0 1 0 12.787 15.857zm-4.908 199.44 62.998-34.804a10.187 10.187 0 1 0-9.855-17.831l-62.998 34.823a10.187 10.187 0 1 0 9.855 17.831zm-2.269 201.14 65.892-29.035a10.181 10.181 0 1 0-8.212-18.634l-65.892 29.036a10.181 10.181 0 1 0 8.212 18.633zm-0.586 202.88 66.576-27.373a10.18 10.18 0 1 0-7.743-18.83l-66.576 27.374a10.18 10.18 0 1 0 7.743 18.829zm0.645 204.4 65.794-29.192a10.18 10.18 0 1 0-8.25-18.614l-65.795 29.192a10.18 10.18 0 1 0 8.251 18.614zm1.818 205.63 63.507-33.884a10.182 10.182 0 1 0-9.58-17.969l-63.527 33.885a10.19 10.19 0 1 0 9.58 17.988zm3.129 206.53 59.224-40.943a10.175 10.175 0 1 0-11.575-16.737l-59.224 40.924a10.183 10.183 0 1 0 11.575 16.756zm4.849 207 52.01-49.76a10.171 10.171 0 1 0-14.059-14.704l-52.01 49.741a10.178 10.178 0 1 0 14.059 14.723zm7.117 206.85 40.552-59.478a10.18 10.18 0 1 0-16.815-11.478l-40.572 59.479a10.18 10.18 0 1 0 16.815 11.477zm10.01 205.5 22.995-68.238a10.18 10.18 0 1 0-19.299-6.492l-22.993 68.238a10.18 10.18 0 1 0 19.298 6.492zm13.101 201.92-2.15-71.953a10.172 10.172 0 1 0-20.335 0.587l2.111 71.953a10.181 10.181 0 1 0 20.354-0.587zm14.352 195.19-33.142-63.898a10.18 10.18 0 1 0-18.066 9.386l33.141 63.897a10.18 10.18 0 1 0 18.067-9.385zm10.362 186.65-61.199-37.893a10.182 10.182 0 1 0-10.734 17.304l61.2 37.893a10.182 10.182 0 1 0 10.733-17.304zm-0.312 181.98-71.954 2.346a10.173 10.173 0 1 0 0.665 20.335l71.953-2.346a10.173 10.173 0 1 0-0.664-20.335zm-12.064 185.92-58.892 41.392a10.182 10.182 0 1 0 11.711 16.659l58.893-41.393a10.182 10.182 0 1 0-11.712-16.658zm217.34-3842.2-70.487-14.586a10.183 10.183 0 1 0-4.125 19.943l70.487 14.567a10.183 10.183 0 1 0 4.125-19.944zm-4.595 224.44-51.051-50.758a10.19 10.19 0 1 0-14.371 14.45l51.051 50.738a10.183 10.183 0 1 0 14.371-14.43zm-15.25 218.54-14.978-70.408a10.193 10.193 0 1 0-19.943 4.223l14.996 70.428a10.176 10.176 0 1 0 19.905-4.243zm-18.869 207.9 22.192-68.473a10.178 10.178 0 1 0-19.357-6.296l-22.211 68.492a10.172 10.172 0 1 0 19.357 6.257zm-15.094 199.81 48.138-53.535a10.176 10.176 0 1 0-15.134-13.609l-48.138 53.516a10.183 10.183 0 1 0 15.134 13.628zm-8.936 197.44 61.473-37.442a10.187 10.187 0 1 0-10.597-17.402l-61.473 37.463a10.187 10.187 0 1 0 10.597 17.401zm-4.243 198.97 66.89-26.611a10.184 10.184 0 1 0-7.528-18.927l-66.87 26.591a10.19 10.19 0 1 0 7.508 18.947zm-1.349 201.72 68.395-22.427a10.184 10.184 0 1 0-6.335-19.357l-68.395 22.446a10.184 10.184 0 1 0 6.335 19.358zm0.587 204.46 67.769-24.303a10.18 10.18 0 1 0-6.883-19.162l-67.769 24.284a10.18 10.18 0 1 0 6.883 19.162zm2.327 206.53 64.992-30.951a10.18 10.18 0 1 0-8.76-18.38l-64.992 30.952a10.18 10.18 0 1 0 8.76 18.38zm4.301 207.78 59.205-40.924a10.183 10.183 0 1 0-11.575-16.756l-59.205 40.943a10.175 10.175 0 1 0 11.575 16.737zm6.511 207.94 49.41-52.361a10.18 10.18 0 1 0-14.802-13.98l-49.41 52.361a10.18 10.18 0 1 0 14.802 13.98zm8.838 206.87 34.764-63.018a10.182 10.182 0 1 0-17.832-9.835l-34.764 63.037a10.177 10.177 0 1 0 17.832 9.816zm10.871 204.52 15.095-70.39a10.18 10.18 0 1 0-19.905-4.281l-15.094 70.389a10.18 10.18 0 1 0 19.904 4.282zm12.26 200.69-9.132-71.405a10.181 10.181 0 1 0-20.197 2.58l9.13 71.406a10.181 10.181 0 1 0 20.198-2.58zm12.122 195.33-35.918-62.412a10.179 10.179 0 1 0-17.636 10.168l35.898 62.372a10.174 10.174 0 1 0 17.636-10.148zm8.838 188.88-60.007-39.77a10.179 10.179 0 1 0-11.243 16.972l60.007 39.77a10.179 10.179 0 1 0 11.243-16.972zm0.88 184.07-71.876-4.047a10.183 10.183 0 1 0-1.134 20.334l71.875 4.048a10.183 10.183 0 1 0 1.134-20.335zm-9.855 185.49-63.096 34.667a10.173 10.173 0 1 0 9.796 17.832l63.096-34.647a10.181 10.181 0 1 0-9.796-17.852zm-17.128 193.71-36.583 61.981a10.186 10.186 0 1 0 17.539 10.363l36.583-61.981a10.186 10.186 0 1 0-17.539-10.363zm231.31-3836-70.82-12.846a10.175 10.175 0 1 0-3.636 20.022l70.839 12.865a10.184 10.184 0 1 0 3.637-20.041zm-4.497 225.36-51.071-50.758a10.183 10.183 0 1 0-14.352 14.45l51.052 50.738a10.176 10.176 0 1 0 14.351-14.43zm-16.072 218.95-13.276-70.76a10.185 10.185 0 1 0-20.022 3.753l13.276 70.76a10.185 10.185 0 1 0 20.022-3.753zm-19.807 207.37 25.36-67.358a10.176 10.176 0 1 0-19.044-7.176l-25.36 67.359a10.176 10.176 0 1 0 19.044 7.175zm-15.486 198.77 51.5-50.289a10.176 10.176 0 1 0-14.214-14.567l-51.501 50.29a10.176 10.176 0 1 0 14.215 14.566zm-8.72 196.7 64.034-32.907a10.179 10.179 0 1 0-9.307-18.105l-64.035 32.887a10.179 10.179 0 1 0 9.307 18.106zm-3.696 198.95 68.433-22.349a10.18 10.18 0 1 0-6.315-19.357l-68.434 22.349a10.18 10.18 0 1 0 6.316 19.357zm-0.665 202.54 69.137-20.08a10.182 10.182 0 1 0-5.69-19.553l-69.137 20.1a10.182 10.182 0 1 0 5.69 19.552zm1.603 205.97 67.398-25.282a10.181 10.181 0 1 0-7.157-19.063l-67.397 25.3a10.181 10.181 0 1 0 7.156 19.064zm4.106 208.31 62.255-36.113a10.18 10.18 0 1 0-10.206-17.617l-62.275 36.113a10.171 10.171 0 1 0 10.207 17.598zm7.059 209 51.99-49.8a10.178 10.178 0 1 0-14.078-14.704l-51.99 49.8a10.178 10.178 0 1 0 14.078 14.704zm10.089 207.69 35.448-62.646a10.179 10.179 0 1 0-17.714-10.03l-35.449 62.646a10.179 10.179 0 1 0 17.715 10.03zm12.2 204.52 13.335-70.742a10.176 10.176 0 1 0-20.002-3.754l-13.335 70.741a10.178 10.178 0 1 0 20.003 3.774zm12.768 200.12-12.122-70.957a10.187 10.187 0 1 0-20.08 3.441l12.122 70.956a10.187 10.187 0 1 0 20.08-3.44zm11.36 195.25-37.54-61.414a10.184 10.184 0 1 0-17.383 10.617l37.541 61.414a10.184 10.184 0 1 0 17.382-10.617zm7.86 190.54-58.95-41.315a10.176 10.176 0 1 0-11.693 16.659l58.951 41.314a10.176 10.176 0 1 0 11.692-16.659zm1.838 186.92-71.093-11.38a10.179 10.179 0 1 0-3.226 20.1l71.093 11.38a10.179 10.179 0 1 0 3.226-20.1zm-6.53 186.49-67.965 23.736a10.178 10.178 0 1 0 6.707 19.22l67.964-23.736a10.178 10.178 0 1 0-6.706-19.22zm-14.293 191.42-47.884 53.769a10.186 10.186 0 1 0 15.212 13.55l47.884-53.77a10.18 10.18 0 1 0-15.212-13.53zm-17.05 199.88-18.262 69.607a10.18 10.18 0 1 0 19.69 5.181l18.261-69.626a10.177 10.177 0 1 0-19.689-5.162zm241.53-3834.9-70.897-12.513a10.184 10.184 0 1 0-3.52 20.06l70.878 12.514a10.185 10.185 0 1 0 3.54-20.06zm-4.497 225.54-51.09-50.738a10.183 10.183 0 1 0-14.352 14.45l51.07 50.738a10.176 10.176 0 1 0 14.352-14.43zm-16.229 219.03-12.924-70.819a10.186 10.186 0 1 0-20.041 3.657l12.924 70.819a10.176 10.176 0 1 0 20.022-3.657zm-20.002 207.26 26.005-67.104a10.174 10.174 0 1 0-18.966-7.372l-26.005 67.124a10.174 10.174 0 1 0 18.966 7.371zm-15.544 198.56 52.166-49.604a10.179 10.179 0 1 0-14.039-14.743l-52.166 49.605a10.179 10.179 0 1 0 14.039 14.742zm-8.584 196.64 64.387-32.184a10.183 10.183 0 1 0-9.092-18.223l-64.386 32.184a10.183 10.183 0 1 0 9.091 18.223zm-3.323 199.36 68.336-22.564a10.19 10.19 0 1 0-6.375-19.357l-68.355 22.584a10.18 10.18 0 1 0 6.374 19.337zm-0.04 203.58 68.376-22.524a10.18 10.18 0 1 0-6.374-19.337l-68.336 22.563a10.187 10.187 0 1 0 6.354 19.357zm2.894 207.36 64.993-30.952a10.18 10.18 0 1 0-8.76-18.38l-64.992 30.952a10.18 10.18 0 1 0 8.76 18.38zm6.374 209.39 56.194-44.99a10.176 10.176 0 1 0-12.709-15.896l-56.194 44.97a10.184 10.184 0 1 0 12.71 15.916zm10.285 208.76 39.868-59.928a10.181 10.181 0 1 0-16.952-11.282l-39.868 59.948a10.176 10.176 0 1 0 16.952 11.262zm13.296 205.36 16.17-70.135a10.174 10.174 0 1 0-19.827-4.575l-16.209 70.135a10.183 10.183 0 1 0 19.846 4.575zm13.921 200.18-11.419-71.073a10.179 10.179 0 1 0-20.1 3.226l11.42 71.074a10.179 10.179 0 1 0 20.1-3.227zm11.83 194.94-37.854-61.22a10.18 10.18 0 1 0-17.324 10.696l37.854 61.238a10.18 10.18 0 1 0 17.323-10.695zm7.586 191.07-58.482-41.96a10.18 10.18 0 1 0-11.868 16.541l58.481 41.96a10.18 10.18 0 1 0 11.869-16.541zm2.17 188.92-70.193-15.896a10.184 10.184 0 1 0-4.497 19.865l70.193 15.896a10.184 10.184 0 1 0 4.497-19.865zm-3.97 188.7-70.662 13.805a10.18 10.18 0 1 0 3.91 19.983l70.644-13.805a10.18 10.18 0 1 0-3.91-19.982zm-10.225 191.13-58.267 42.273a10.184 10.184 0 1 0 11.967 16.483l58.266-42.292a10.176 10.176 0 1 0-11.966-16.464zm-14.371 196.62-35.312 62.744a10.181 10.181 0 1 0 17.754 9.972l35.292-62.724a10.173 10.173 0 1 0-17.734-9.972zm-14.215 202.96-9.326 71.386a10.185 10.185 0 1 0 20.197 2.64l9.327-71.367a10.186 10.186 0 1 0-20.198-2.659zm246.32-3834.7-70.701-13.55a10.183 10.183 0 1 0-3.833 20.002l70.702 13.53a10.173 10.173 0 1 0 3.832-19.982zm-4.555 224.99-51.052-50.758a10.183 10.183 0 1 0-14.351 14.45l51.032 50.738a10.183 10.183 0 1 0 14.37-14.43zm-15.74 218.79-13.96-70.624a10.175 10.175 0 1 0-19.964 3.95l13.941 70.604a10.183 10.183 0 1 0 19.983-3.93zm-19.435 207.59 24.108-67.847a10.176 10.176 0 1 0-19.18-6.805l-24.11 67.847a10.176 10.176 0 1 0 19.182 6.805zm-15.31 199.2 50.152-51.657a10.177 10.177 0 1 0-14.605-14.176l-50.152 51.658a10.177 10.177 0 1 0 14.605 14.175zm-8.486 197.34 62.568-35.586a10.183 10.183 0 1 0-10.05-17.714l-62.567 35.585a10.183 10.183 0 1 0 10.05 17.715zm-2.971 200.3 66.36-27.92a10.182 10.182 0 1 0-7.899-18.77l-66.36 27.94a10.182 10.182 0 1 0 7.899 18.77zm0.977 204.77 65.168-30.58a10.177 10.177 0 1 0-8.661-18.419l-65.169 30.58a10.177 10.177 0 1 0 8.662 18.419zm4.85 208.29 58.617-41.783a10.178 10.178 0 1 0-11.81-16.58l-58.618 41.763a10.186 10.186 0 1 0 11.81 16.6zm9.384 209.1 44.13-56.859a10.186 10.186 0 1 0-16.091-12.494l-44.13 56.878a10.18 10.18 0 1 0 16.091 12.475zm13.452 206.34 20.648-68.962a10.185 10.185 0 1 0-19.513-5.846l-20.648 68.981a10.182 10.182 0 1 0 19.513 5.827zm15.017 200.71-8.682-71.464a10.183 10.183 0 1 0-20.217 2.464l8.681 71.464a10.183 10.183 0 1 0 20.218-2.464zm12.865 194.66-37.189-61.63a10.184 10.184 0 1 0-17.44 10.52l37.188 61.63a10.184 10.184 0 1 0 17.441-10.52zm7.9 190.66-58.619-41.783a10.178 10.178 0 1 0-11.81 16.58l58.619 41.784a10.178 10.178 0 1 0 11.81-16.58zm2.15 189.46-69.998-16.737a10.182 10.182 0 1 0-4.731 19.807l69.997 16.756a10.182 10.182 0 1 0 4.732-19.806zm-2.972 190.44-71.386 9.229a10.182 10.182 0 1 0 2.6 20.198l71.387-9.229a10.182 10.182 0 1 0-2.6-20.198zm-7.254 192.57-63.74 33.474a10.18 10.18 0 1 0 9.463 18.027l63.74-33.474a10.18 10.18 0 1 0-9.463-18.027zm-10.597 195.82-48.217 53.456a10.183 10.183 0 1 0 15.134 13.628l48.216-53.456a10.183 10.183 0 1 0-15.133-13.628zm-11.849 200.02-28.116 66.283a10.176 10.176 0 1 0 18.73 7.958l28.117-66.283a10.172 10.172 0 1 0-18.731-7.939zm-10.109 203.74-9.365 71.366a10.185 10.185 0 1 0 20.197 2.64l9.366-71.367a10.186 10.186 0 1 0-20.198-2.659zm246.36-3833.6-70.194-15.895a10.184 10.184 0 1 0-4.497 19.865l70.194 15.896a10.184 10.184 0 1 0 4.497-19.865zm-4.634 223.76-51.052-50.759a10.176 10.176 0 1 0-14.351 14.43l51.032 50.758a10.183 10.183 0 1 0 14.37-14.43zm-14.664 218.2-16.268-70.115a10.176 10.176 0 1 0-19.826 4.595l16.267 70.135a10.188 10.188 0 1 0 19.846-4.615zm-18.106 208.25 19.709-69.216a10.178 10.178 0 1 0-19.572-5.592l-19.729 69.235a10.184 10.184 0 1 0 19.592 5.573zm-14.547 200.65 45.088-56.116a10.187 10.187 0 1 0-15.877-12.768l-45.088 56.116a10.187 10.187 0 1 0 15.877 12.768zm-8.075 198.91 57.582-43.191a10.175 10.175 0 1 0-12.201-16.288l-57.64 43.192a10.181 10.181 0 1 0 12.22 16.287zm-2.288 201.72 60.808-38.538a10.187 10.187 0 1 0-10.91-17.206l-60.808 38.538a10.187 10.187 0 1 0 10.91 17.206zm2.6 205.73 57.094-43.836a10.18 10.18 0 1 0-12.397-16.15l-57.093 43.836a10.18 10.18 0 1 0 12.396 16.15zm7.626 208 45.283-55.96a10.184 10.184 0 1 0-15.837-12.806l-45.284 55.959a10.184 10.184 0 1 0 15.838 12.807zm12.553 206.57 23.58-68.023a10.172 10.172 0 1 0-19.22-6.668l-23.6 68.004a10.184 10.184 0 1 0 19.24 6.687zm15.29 201.29-5.944-71.758a10.174 10.174 0 1 0-20.276 1.701l5.924 71.738a10.183 10.183 0 1 0 20.296-1.681zm13.784 194.57-36.192-62.217a10.176 10.176 0 1 0-17.597 10.226l36.172 62.236a10.181 10.181 0 1 0 17.598-10.245zm8.447 189.85-59.049-41.177a10.181 10.181 0 1 0-11.653 16.697l59.049 41.178a10.181 10.181 0 1 0 11.653-16.698zm1.975 188.92-70.39-14.996a10.178 10.178 0 1 0-4.262 19.904l70.409 14.997a10.176 10.176 0 1 0 4.243-19.905zm-3.129 190.93-71.269 10.11a10.181 10.181 0 1 0 2.875 20.158l71.268-10.109a10.18 10.18 0 1 0-2.854-20.159zm-6.159 193.98-64.895 31.167a10.184 10.184 0 1 0 8.819 18.36l64.894-31.167a10.18 10.18 0 1 0-8.798-18.36zm-7.82 196.91-53.887 47.727a10.18 10.18 0 1 0 13.49 15.251l53.887-47.747a10.18 10.18 0 1 0-13.49-15.25zm-8.682 199.49-39.965 59.87a10.179 10.179 0 1 0 16.932 11.301l39.965-59.87a10.179 10.179 0 1 0-16.932-11.301zm-8.036 201.96-25.946 67.143a10.189 10.189 0 1 0 19.005 7.352l25.926-67.163a10.176 10.176 0 1 0-18.985-7.332zm-5.338 203.5-16.13 70.154a10.181 10.181 0 1 0 19.845 4.556l16.13-70.154a10.181 10.181 0 1 0-19.845-4.556zm242.88-3831.3-69.333-19.416a10.18 10.18 0 1 0-5.475 19.611l69.314 19.396a10.18 10.18 0 1 0 5.474-19.611zm-4.712 221.88-51.032-50.778a10.176 10.176 0 1 0-14.352 14.43l51.032 50.778a10.176 10.176 0 1 0 14.352-14.43zm-13.061 217.27-19.71-69.235a10.175 10.175 0 1 0-19.571 5.572l19.709 69.216a10.172 10.172 0 1 0 19.572-5.553zm-16.033 209.02 12.846-70.838a10.184 10.184 0 1 0-20.041-3.637l-12.846 70.82a10.175 10.175 0 1 0 20.021 3.636zm-12.963 202.56 36.309-62.138a10.191 10.191 0 1 0-17.598-10.284l-36.29 62.177a10.178 10.178 0 1 0 17.579 10.265zm-6.961 201.06 47.845-53.769a10.18 10.18 0 1 0-15.212-13.53l-47.845 53.77a10.18 10.18 0 1 0 15.212 13.53zm-0.84 203.19 49.193-52.538a10.181 10.181 0 1 0-14.86-13.92l-49.213 52.537a10.181 10.181 0 1 0 14.86 13.921zm4.946 205.73 41.138-59.068a10.184 10.184 0 1 0-16.717-11.634l-41.158 59.03a10.184 10.184 0 1 0 16.717 11.633zm10.52 205.61 22.72-68.297a10.19 10.19 0 1 0-19.338-6.432l-22.7 68.316a10.177 10.177 0 1 0 19.317 6.413zm14.331 201.45-4.966-71.817a10.192 10.192 0 1 0-20.335 1.408l5.006 71.816a10.172 10.172 0 1 0 20.295-1.407zm13.98 194.7-35.507-62.626a10.183 10.183 0 1 0-17.715 10.05l35.507 62.607a10.179 10.179 0 1 0 17.715-10.03zm8.857 189.19-59.478-40.571a10.18 10.18 0 1 0-11.478 16.815l59.48 40.571a10.18 10.18 0 1 0 11.476-16.815zm1.721 187.88-70.917-12.338a10.18 10.18 0 1 0-3.48 20.061l70.917 12.318a10.17 10.17 0 1 0 3.48-20.04zm-3.871 190.46-70.604 14.02a10.185 10.185 0 1 0 3.95 19.983l70.623-14.02a10.187 10.187 0 1 0-3.97-19.982zm-6.492 194.55-63.35 34.217a10.184 10.184 0 1 0 9.698 17.91l63.33-34.217a10.179 10.179 0 1 0-9.678-17.91zm-6.863 198.05-53.554 48.1a10.183 10.183 0 1 0 13.609 15.153l53.554-48.1a10.183 10.183 0 1 0-13.609-15.153zm-6.354 200.39-43.465 57.386a10.181 10.181 0 1 0 16.228 12.299l43.465-57.387a10.181 10.181 0 1 0-16.228-12.298zm-5.553 201.92-34.06 63.429a10.174 10.174 0 1 0 17.929 9.62l34.06-63.41a10.178 10.178 0 1 0-17.93-9.639zm-3.735 202.99-27.471 66.537a10.174 10.174 0 1 0 18.81 7.763l27.47-66.537a10.174 10.174 0 1 0-18.809-7.763zm-0.352 203.56-26.845 66.792a10.177 10.177 0 1 0 18.887 7.586l26.866-66.772a10.19 10.19 0 1 0-18.908-7.606zm236.96-3828.9-67.847-24.088a10.189 10.189 0 1 0-6.824 19.2l67.847 24.07a10.176 10.176 0 1 0 6.804-19.182zm-4.732 219.48-50.797-51.012a10.183 10.183 0 1 0-14.43 14.37l50.798 51.013a10.183 10.183 0 1 0 14.43-14.371zm-11.047 215.86-23.913-67.906a10.188 10.188 0 1 0-19.22 6.765l23.933 67.906a10.179 10.179 0 1 0 19.2-6.766zm-13.198 209.5 3.617-71.894a10.18 10.18 0 1 0-20.334-1.036l-3.617 71.894a10.18 10.18 0 1 0 20.334 1.036zm-10.44 204.5 23.403-68.082a10.184 10.184 0 1 0-19.259-6.628l-23.384 68.082a10.175 10.175 0 1 0 19.24 6.628zm-4.889 203.01 32.164-64.406a10.183 10.183 0 1 0-18.223-9.091l-32.164 64.386a10.178 10.178 0 1 0 18.203 9.111zm1.29 203.82 29.877-65.5a10.172 10.172 0 1 0-18.517-8.427l-29.895 65.48a10.185 10.185 0 1 0 18.536 8.447zm7.333 204.01 16.502-70.076a10.183 10.183 0 1 0-19.826-4.653l-16.483 70.076a10.173 10.173 0 1 0 19.807 4.653zm12.024 201.06-7.117-71.64a10.178 10.178 0 1 0-20.256 2.014l7.117 71.64a10.178 10.178 0 1 0 20.256-2.014zm12.983 195.02-35.644-62.529a10.18 10.18 0 1 0-17.695 10.07l35.644 62.548a10.185 10.185 0 1 0 17.695-10.089zm8.858 189.11-59.635-40.337a10.182 10.182 0 1 0-11.4 16.874l59.635 40.336a10.182 10.182 0 1 0 11.4-16.873zm1.564 187.06-71.21-10.5a10.179 10.179 0 1 0-2.972 20.14l71.21 10.519a10.179 10.179 0 1 0 2.972-20.14zm-4.751 189.62-69.725 17.91a10.175 10.175 0 1 0 5.064 19.71l69.725-17.91a10.177 10.177 0 1 0-5.084-19.71zm-7.626 194.35-60.476 39.027a10.183 10.183 0 1 0 11.047 17.108l60.476-39.026a10.177 10.177 0 1 0-11.027-17.109zm-7.273 198.6-49.625 52.127a10.179 10.179 0 1 0 14.743 14.038l49.644-52.127a10.186 10.186 0 1 0-14.762-14.038zm-5.534 201.23-40.61 59.44a10.18 10.18 0 1 0 16.815 11.477l40.59-59.44a10.18 10.18 0 1 0-16.814-11.477zm-3.773 202.56-34.178 63.35a10.183 10.183 0 1 0 17.93 9.659l34.158-63.35a10.174 10.174 0 1 0-17.91-9.66zm-2.073 203.21-30.541 65.168a10.181 10.181 0 1 0 18.438 8.642l30.54-65.188a10.177 10.177 0 1 0-18.437-8.622zm0.47 203.68-31.382 64.797a10.188 10.188 0 1 0 18.34 8.877l31.362-64.797a10.188 10.188 0 1 0-18.34-8.877zm4.242 204.62-38.714 60.71a10.19 10.19 0 1 0 17.187 10.95l38.694-60.71a10.18 10.18 0 1 0-17.167-10.95zm229.78-3826.9-65.326-30.248a10.183 10.183 0 1 0-8.564 18.477l65.325 30.248a10.183 10.183 0 1 0 8.564-18.477zm-4.693 216.64-49.8-51.951a10.178 10.178 0 1 0-14.703 14.077l49.8 51.97a10.178 10.178 0 1 0 14.703-14.077zm-8.837 213.86-28.078-66.283a10.181 10.181 0 1 0-18.75 7.938l28.077 66.283a10.181 10.181 0 1 0 18.75-7.938zm-9.777 209.27-7-71.66a10.176 10.176 0 1 0-20.256 1.975l6.98 71.66a10.176 10.176 0 1 0 20.257-1.975zm-7.117 205.59 7.235-71.62a10.18 10.18 0 1 0-20.257-2.034l-7.234 71.62a10.18 10.18 0 1 0 20.256 2.034zm-2.15 203.93 11.399-71.073a10.188 10.188 0 1 0-20.12-3.227l-11.38 71.074a10.179 10.179 0 1 0 20.1 3.226zm3.519 203.01 4.556-71.835a10.188 10.188 0 1 0-20.335-1.29l-4.536 71.855a10.187 10.187 0 1 0 20.335 1.27zm8.564 200.65-12.846-70.82a10.173 10.173 0 1 0-20.022 3.618l12.827 70.839a10.184 10.184 0 1 0 20.04-3.637zm10.754 195.7-36.896-61.804a10.189 10.189 0 1 0-17.5 10.44l36.916 61.786a10.175 10.175 0 1 0 17.48-10.421zm8.231 189.93-59.322-40.787a10.18 10.18 0 1 0-11.536 16.776l59.322 40.787a10.18 10.18 0 1 0 11.536-16.776zm1.702 187-71.172-10.93a10.186 10.186 0 1 0-3.07 20.139l71.152 10.91a10.187 10.187 0 1 0 3.09-20.139zm-5.143 188.82-69.392 19.162a10.182 10.182 0 1 0 5.416 19.63l69.412-19.161a10.185 10.185 0 1 0-5.436-19.63zm-8.74 193.69-58.403 42.097a10.189 10.189 0 1 0 11.927 16.522l58.384-42.097a10.183 10.183 0 1 0-11.908-16.522zm-8.505 198.54-45.303 55.96a10.184 10.184 0 1 0 15.837 12.806l45.284-55.94a10.182 10.182 0 1 0-15.818-12.826zm-6.1 201.59-35.058 62.881a10.184 10.184 0 1 0 17.793 9.913l35.057-62.861a10.184 10.184 0 1 0-17.792-9.913zm-3.324 202.99-29.231 65.775a10.175 10.175 0 1 0 18.594 8.27l29.231-65.774a10.175 10.175 0 1 0-18.594-8.27zm-1.037 203.46-27.373 66.576a10.17 10.17 0 1 0 18.81 7.743l27.392-66.557a10.183 10.183 0 1 0-18.829-7.762zm1.134 203.76-29.407 65.696a10.178 10.178 0 1 0 18.575 8.33l29.427-65.697a10.178 10.178 0 1 0-18.575-8.329zm4.106 204.46-36.563 62.001a10.186 10.186 0 1 0 17.539 10.363l36.563-62.04a10.184 10.184 0 1 0-17.558-10.324zm7.743 206.59-49.35 52.4a10.18 10.18 0 1 0 14.82 13.961l49.35-52.4a10.18 10.18 0 1 0-14.82-13.961zm222.31-3825-61.121-38.05a10.178 10.178 0 1 0-10.754 17.285l61.102 38.05a10.178 10.178 0 1 0 10.753-17.285zm-4.595 213.63-47.376-54.199a10.178 10.178 0 1 0-15.329 13.393l47.376 54.2a10.178 10.178 0 1 0 15.33-13.393zm-6.667 211.3-30.971-64.973a10.18 10.18 0 1 0-18.38 8.76l30.971 64.973a10.18 10.18 0 1 0 18.38-8.76zm-6.335 208.1-16.894-69.978a10.189 10.189 0 1 0-19.806 4.79l16.913 69.979a10.18 10.18 0 1 0 19.787-4.79zm-3.559 205.38-9.385-71.367a10.185 10.185 0 1 0-20.198 2.64l9.385 71.366a10.185 10.185 0 1 0 20.198-2.64zm0.665 203.31-10.754-71.171a10.184 10.184 0 1 0-20.139 3.05l10.754 71.17a10.184 10.184 0 1 0 20.139-3.05zm4.966 200.88-21.41-68.727a10.18 10.18 0 1 0-19.435 6.061l21.41 68.727a10.18 10.18 0 1 0 19.435-6.061zm7.743 196.89-39.261-60.339a10.182 10.182 0 1 0-17.07 11.106l39.262 60.34a10.182 10.182 0 1 0 17.07-11.107zm7 191.73-58.443-42.018a10.177 10.177 0 1 0-11.887 16.522l58.462 42.038a10.18 10.18 0 1 0 11.868-16.542zm2.15 188.1-70.545-14.39a10.177 10.177 0 1 0-4.067 19.943l70.526 14.39a10.177 10.177 0 1 0 4.067-19.943zm-4.457 188.49-70.194 15.935a10.184 10.184 0 1 0 4.497 19.866l70.194-15.955a10.174 10.174 0 1 0-4.497-19.846zm-9.014 192.67-59.244 40.904a10.177 10.177 0 1 0 11.555 16.757l59.245-40.904a10.177 10.177 0 1 0-11.556-16.757zm-9.698 197.81-44.326 56.722a10.175 10.175 0 1 0 16.034 12.533l44.325-56.702a10.181 10.181 0 1 0-16.033-12.553zm-7.45 201.43-31.675 64.66a10.187 10.187 0 1 0 18.301 8.955l31.656-64.66a10.179 10.179 0 1 0-18.282-8.955zm-4.184 203.09-24.186 67.808a10.173 10.173 0 1 0 19.161 6.844l24.206-67.808a10.183 10.183 0 1 0-19.18-6.844zm-1.173 203.54-22.036 68.55a10.175 10.175 0 1 0 19.377 6.218l22.036-68.53a10.184 10.184 0 1 0-19.397-6.219zm1.232 203.68-24.304 67.769a10.177 10.177 0 1 0 19.162 6.863l24.303-67.75a10.18 10.18 0 1 0-19.161-6.882zm3.656 204.05-30.854 65.032a10.185 10.185 0 1 0 18.4 8.74l30.853-65.052a10.172 10.172 0 1 0-18.38-8.72zm6.726 205.4-42.35 58.208a10.182 10.182 0 1 0 16.463 11.985l42.35-58.207a10.182 10.182 0 1 0-16.463-11.986zm9.776 209-57.64 43.114a10.177 10.177 0 1 0 12.18 16.306l57.661-43.113a10.183 10.183 0 1 0-12.2-16.307zm214.73-3823-54.395-47.161a10.18 10.18 0 1 0-13.335 15.387l54.395 47.161a10.18 10.18 0 1 0 13.335-15.388zm-4.302 210.66-42.722-57.954a10.18 10.18 0 1 0-16.385 12.084l42.703 57.953a10.18 10.18 0 1 0 16.385-12.083zm-4.692 208.62-31.401-64.778a10.179 10.179 0 1 0-18.321 8.877l31.382 64.778a10.179 10.179 0 1 0 18.32-8.877zm-3.285 206.22-23.971-67.886a10.182 10.182 0 1 0-19.2 6.784l23.97 67.867a10.179 10.179 0 1 0 19.201-6.765zm-0.45 203.93-22.974-68.238a10.18 10.18 0 1 0-19.298 6.492l22.974 68.238a10.184 10.184 0 1 0 19.298-6.511zm2.796 201.47-29.27-65.775a10.18 10.18 0 1 0-18.594 8.29l29.27 65.775a10.18 10.18 0 1 0 18.594-8.29zm5.28 198.26-41.843-58.6a10.17 10.17 0 1 0-16.56 11.81l41.802 58.6a10.178 10.178 0 1 0 16.58-11.81zm5.513 194.12-57.015-43.935a10.184 10.184 0 1 0-12.435 16.131l57.015 43.934a10.184 10.184 0 1 0 12.435-16.13zm2.679 190.38-68.903-20.843a10.184 10.184 0 1 0-5.905 19.494l68.903 20.843a10.184 10.184 0 1 0 5.905-19.494zm-2.62 189.15-71.62 7.293a10.18 10.18 0 1 0 2.052 20.256l71.62-7.293a10.18 10.18 0 1 0-2.052-20.256zm-7.684 191.61-63.683 33.533a10.185 10.185 0 1 0 9.483 18.027l63.702-33.552a10.18 10.18 0 1 0-9.502-18.008zm-9.816 196.21-49.37 52.4a10.167 10.167 0 1 0 14.802 13.941l49.39-52.38a10.18 10.18 0 1 0-14.822-13.961zm-8.72 200.37-34.92 62.959a10.17 10.17 0 1 0 17.792 9.854l34.92-62.94a10.174 10.174 0 1 0-17.792-9.873zm-5.748 202.72-24.754 67.593a10.182 10.182 0 1 0 19.123 7l24.753-67.593a10.182 10.182 0 1 0-19.122-7zm-2.484 203.5-20.217 69.08a10.187 10.187 0 1 0 19.553 5.728l20.217-69.079a10.187 10.187 0 1 0-19.553-5.729zm0.372 203.62-20.882 68.883a10.175 10.175 0 1 0 19.474 5.905l20.882-68.883a10.175 10.175 0 1 0-19.474-5.905zm2.796 203.76-25.985 67.144a10.18 10.18 0 1 0 18.985 7.351l25.985-67.143a10.18 10.18 0 1 0-18.985-7.352zm5.22 204.48-35.194 62.783a10.181 10.181 0 1 0 17.754 9.972l35.194-62.803a10.176 10.176 0 1 0-17.754-9.952zm8.076 206.55-48.608 53.104a10.179 10.179 0 1 0 15.016 13.746l48.608-53.085a10.185 10.185 0 1 0-15.016-13.765zm10.226 211.17-63.585 33.747a10.181 10.181 0 1 0 9.542 17.989l63.584-33.728a10.181 10.181 0 1 0-9.541-17.989zm206.83-3820.7-44.463-56.624a10.18 10.18 0 1 0-16.013 12.572l44.462 56.624a10.18 10.18 0 1 0 16.014-12.572zm-3.852 208.12-34.96-62.939a10.18 10.18 0 1 0-17.793 9.894l34.94 62.92a10.174 10.174 0 1 0 17.793-9.875zm-2.894 206.18-28.253-66.204a10.183 10.183 0 1 0-18.731 7.997l28.253 66.204a10.183 10.183 0 1 0 18.731-7.997zm-0.723 204.19-26.592-66.87a10.18 10.18 0 1 0-18.927 7.509l26.592 66.889a10.184 10.184 0 1 0 18.927-7.528zm1.935 202.02-31.03-64.953a10.184 10.184 0 1 0-18.379 8.78l31.03 64.953a10.184 10.184 0 1 0 18.38-8.78zm4.146 199.34-40.943-59.205a10.183 10.183 0 1 0-16.757 11.575l40.943 59.205a10.183 10.183 0 1 0 16.757-11.575zm4.829 196.07-53.847-47.786a10.187 10.187 0 1 0-13.511 15.251l53.847 47.767a10.187 10.187 0 1 0 13.511-15.251zm3.324 192.87-65.618-29.622a10.19 10.19 0 1 0-8.388 18.575l65.618 29.603a10.19 10.19 0 1 0 8.388-18.575zm-0.274 190.97-71.738-6.081a10.174 10.174 0 1 0-1.72 20.276l71.738 6.1a10.184 10.184 0 1 0 1.72-20.296zm-4.673 191.46-69.45 18.869a10.181 10.181 0 1 0 5.338 19.65l69.45-18.888a10.172 10.172 0 1 0-5.338-19.63zm-7.919 194.27-59.654 40.298a10.176 10.176 0 1 0 11.38 16.873l59.654-40.278a10.184 10.184 0 1 0-11.38-16.893zm-8.661 198.14-46.496 54.942a10.183 10.183 0 1 0 15.544 13.16l46.496-54.943a10.183 10.183 0 1 0-15.544-13.16zm-6.98 201.23-34.804 63.018a10.174 10.174 0 1 0 17.812 9.835l34.804-63.018a10.174 10.174 0 1 0-17.813-9.835zm-4.204 202.88-27.413 66.576a10.18 10.18 0 1 0 18.83 7.743l27.412-66.576a10.18 10.18 0 1 0-18.83-7.743zm-1.369 203.48-24.949 67.514a10.173 10.173 0 1 0 19.083 7.059l24.969-67.515a10.173 10.173 0 1 0-19.083-7.058zm1.193 203.72-27.1 66.674a10.186 10.186 0 1 0 18.868 7.684l27.1-66.693a10.183 10.183 0 1 0-18.868-7.665zm3.5 204.17-33.279 63.82a10.18 10.18 0 1 0 18.047 9.424l33.279-63.84a10.175 10.175 0 1 0-18.047-9.404zm5.67 205.26-42.937 57.778a10.181 10.181 0 1 0 16.345 12.142l42.938-57.758a10.18 10.18 0 1 0-16.327-12.162zm8.016 207.82-55.548 45.792a10.188 10.188 0 1 0 12.963 15.72l55.53-45.81a10.18 10.18 0 1 0-12.964-15.702zm9.19 212.69-67.808 24.167a10.173 10.173 0 1 0 6.843 19.162l67.789-24.148a10.183 10.183 0 1 0-6.844-19.18zm197.81-3818.8-31.01-64.973a10.184 10.184 0 1 0-18.38 8.78l31.01 64.953a10.18 10.18 0 1 0 18.38-8.76zm-3.324 206.2-23.522-68.042a10.178 10.178 0 1 0-19.24 6.648l23.522 68.042a10.187 10.187 0 1 0 19.26-6.647zm-1.252 204.46-20.725-68.942a10.188 10.188 0 1 0-19.514 5.866l20.726 68.922a10.188 10.188 0 1 0 19.513-5.866zm1.389 202.66-23.815-67.926a10.172 10.172 0 1 0-19.201 6.726l23.815 67.945a10.176 10.176 0 1 0 19.2-6.745zm3.87 200.49-32.593-64.19a10.187 10.187 0 1 0-18.164 9.229l32.594 64.19a10.187 10.187 0 1 0 18.164-9.228zm5.163 197.74-45.245-55.998a10.178 10.178 0 1 0-15.837 12.787l45.244 55.998a10.178 10.178 0 1 0 15.838-12.787zm4.595 194.82-58.365-42.136a10.18 10.18 0 1 0-11.927 16.503l58.384 42.135a10.18 10.18 0 1 0 11.927-16.502zm2.209 192.75-68.14-23.19a10.18 10.18 0 1 0-6.55 19.28l68.14 23.188a10.18 10.18 0 1 0 6.55-19.278zm-1.134 192.3-71.953-1.662a10.18 10.18 0 1 0-0.47 20.354l71.954 1.662a10.17 10.17 0 1 0 0.469-20.334zm-4.223 193.57-69.392 19.161a10.173 10.173 0 1 0 5.416 19.611l69.392-19.141a10.182 10.182 0 1 0-5.416-19.631zm-6.14 195.96-62.02 36.544a10.176 10.176 0 1 0 10.323 17.538l62.02-36.524a10.184 10.184 0 1 0-10.323-17.558zm-6.354 198.73-52.812 48.9a10.176 10.176 0 1 0 13.824 14.938l52.811-48.9a10.176 10.176 0 1 0-13.823-14.939zm-5.045 201.04-44.834 56.311a10.185 10.185 0 1 0 15.935 12.69l44.834-56.33a10.18 10.18 0 1 0-15.935-12.67zm-2.972 202.5-39.887 59.91a10.173 10.173 0 1 0 16.932 11.281l39.887-59.909a10.173 10.173 0 1 0-16.932-11.282zm-0.782 203.35-38.577 60.789a10.179 10.179 0 1 0 17.186 10.91l38.578-60.769a10.179 10.179 0 1 0-17.187-10.91zm1.35 204.05-40.866 59.283a10.18 10.18 0 1 0 16.776 11.536l40.865-59.263a10.18 10.18 0 1 0-16.776-11.536zm3.264 204.91-46.222 55.177a10.18 10.18 0 1 0 15.603 13.08l46.222-55.196a10.18 10.18 0 1 0-15.603-13.08zm4.888 206.26-53.906 47.707a10.174 10.174 0 1 0 13.491 15.232l53.926-47.708a10.18 10.18 0 1 0-13.491-15.251zm6.472 208.86-63.135 34.587a10.177 10.177 0 1 0 9.777 17.852l63.154-34.608a10.168 10.168 0 1 0-9.776-17.832zm6.883 213.28-70.78 13.06a10.178 10.178 0 1 0 3.676 20.022l70.78-13.06a10.178 10.178 0 1 0-3.676-20.022zm187.31-3818.8-14.586-70.487a10.18 10.18 0 1 0-19.944 4.106l14.606 70.506a10.183 10.183 0 1 0 19.943-4.125zm-2.933 204.97-8.427-71.483a10.189 10.189 0 1 0-20.237 2.385l8.447 71.484a10.179 10.179 0 1 0 20.217-2.386zm0.02 203.6-8.486-71.483a10.18 10.18 0 1 0-20.217 2.405l8.486 71.483a10.18 10.18 0 1 0 20.217-2.405zm3.167 202.12-15.133-70.39a10.182 10.182 0 1 0-19.905 4.302l15.134 70.39a10.182 10.182 0 1 0 19.904-4.302zm5.573 200-27.354-66.596a10.176 10.176 0 1 0-18.83 7.723l27.355 66.596a10.176 10.176 0 1 0 18.829-7.723zm6.374 197.23-42.488-58.11a10.172 10.172 0 1 0-16.424 12.005l42.468 58.11a10.172 10.172 0 1 0 16.424-12.005zm5.181 194.66-56.76-44.267a10.17 10.17 0 1 0-12.514 16.033l56.741 44.286a10.17 10.17 0 1 0 12.514-16.033zm2.542 193.39-66.83-26.689a10.183 10.183 0 1 0-7.567 18.907l66.87 26.69a10.179 10.179 0 1 0 7.547-18.908zm-0.254 193.78-71.504-8.369a10.176 10.176 0 1 0-2.346 20.218l71.484 8.368a10.176 10.176 0 1 0 2.346-20.217zm-2.327 195.35-71.523 8.153a10.174 10.174 0 1 0 2.307 20.218l71.523-8.134a10.184 10.184 0 1 0-2.307-20.237zm-3.343 197.26-68.65 21.664a10.179 10.179 0 1 0 6.12 19.416l68.65-21.664a10.179 10.179 0 1 0-6.12-19.416zm-3.5 199.08-64.543 31.871a10.178 10.178 0 1 0 8.994 18.262l64.563-31.87a10.178 10.178 0 1 0-8.995-18.263zm-2.874 200.75-60.71 38.675a10.176 10.176 0 1 0 10.929 17.167l60.71-38.675a10.176 10.176 0 1 0-10.93-17.167zm-1.78 202.11-58.207 42.37a10.182 10.182 0 1 0 11.985 16.463l58.208-42.37a10.182 10.182 0 1 0-11.986-16.463zm-0.488 203.25-57.485 43.29a10.173 10.173 0 1 0 12.22 16.267l57.524-43.29a10.185 10.185 0 1 0-12.26-16.267zm0.938 204.32-58.853 41.47a10.188 10.188 0 1 0 11.732 16.66l58.852-41.472a10.188 10.188 0 1 0-11.73-16.658zm2.15 205.5-61.844 36.857a10.184 10.184 0 1 0 10.422 17.5l61.844-36.877a10.18 10.18 0 1 0-10.44-17.48zm3.051 206.87-65.794 29.23a10.184 10.184 0 1 0 8.27 18.615l65.795-29.231a10.184 10.184 0 1 0-8.271-18.614zm3.793 209.11-69.94 17.03a10.182 10.182 0 1 0 4.81 19.788l69.96-17.01a10.193 10.193 0 1 0-4.83-19.808zm3.676 212.69-71.973-1.7a10.18 10.18 0 1 0-0.488 20.354l71.972 1.7a10.17 10.17 0 1 0 0.49-20.334zm175.88-3822.8 3.324-71.914a10.178 10.178 0 1 0-20.335-0.938l-3.324 71.914a10.178 10.178 0 1 0 20.335 0.938zm-2.992 204.17 9.19-71.386a10.182 10.182 0 1 0-20.198-2.6l-9.19 71.406a10.181 10.181 0 1 0 20.198 2.58zm0.763 203.5 7.723-71.562a10.187 10.187 0 1 0-20.256-2.19l-7.724 71.562a10.187 10.187 0 1 0 20.257 2.19zm4.34 202.58-0.86-71.973a10.188 10.188 0 1 0-20.374 0.255l0.88 71.972a10.178 10.178 0 1 0 20.354-0.254zm6.98 200.76-15.29-70.35a10.174 10.174 0 1 0-19.884 4.321l15.29 70.35a10.184 10.184 0 1 0 19.904-4.32zm7.763 198.09-32.555-64.19a10.178 10.178 0 1 0-18.164 9.19l32.574 64.21a10.17 10.17 0 1 0 18.145-9.19zm6.51 195.72-48.724-52.986a10.185 10.185 0 1 0-14.997 13.784l48.725 52.987a10.185 10.185 0 1 0 14.997-13.784zm3.95 194.8-60.67-38.753a10.18 10.18 0 1 0-10.95 17.167l60.671 38.734a10.173 10.173 0 1 0 10.95-17.148zm1.487 195.56-67.652-24.636a10.184 10.184 0 1 0-6.96 19.142l67.65 24.636a10.193 10.193 0 1 0 6.962-19.161zm-0.078 197.28-70.82-12.905a10.184 10.184 0 1 0-3.636 20.042l70.8 12.904a10.176 10.176 0 1 0 3.656-20.022zm-0.724 199.04-71.875-4.067a10.183 10.183 0 1 0-1.134 20.335l71.856 4.067a10.184 10.184 0 1 0 1.173-20.335zm-0.9 200.28-71.952 2.6a10.174 10.174 0 1 0 0.743 20.335l71.953-2.58a10.184 10.184 0 1 0-0.743-20.355zm-0.86 201.24-71.6 7.43a10.183 10.183 0 1 0 2.11 20.256l71.602-7.43a10.183 10.183 0 1 0-2.112-20.256zm-0.586 202.23-71.23 10.285a10.173 10.173 0 1 0 2.894 20.139l71.25-10.265a10.173 10.173 0 1 0-2.895-20.14zm-0.137 203.27-71.152 11.008a10.19 10.19 0 1 0 3.129 20.139l71.132-11.028a10.19 10.19 0 1 0-3.129-20.139zm0.293 204.3-71.347 9.58a10.17 10.17 0 1 0 2.718 20.16l71.347-9.582a10.17 10.17 0 1 0-2.718-20.158zm0.704 205.3-71.738 6.062a10.174 10.174 0 1 0 1.701 20.276l71.758-6.042a10.174 10.174 0 1 0-1.72-20.276zm0.9 206.36-71.973 0.508a10.177 10.177 0 1 0 0.137 20.354l71.972-0.508a10.177 10.177 0 1 0-0.136-20.354zm0.977 207.94-71.523-8.036a10.172 10.172 0 1 0-2.268 20.218l71.523 8.055a10.183 10.183 0 1 0 2.288-20.236zm0.509 210.54-68.825-21.136a10.174 10.174 0 1 0-5.964 19.454l68.805 21.156a10.186 10.186 0 1 0 5.984-19.474zm165.53-3832 20.824-68.923a10.172 10.172 0 1 0-19.474-5.885l-20.823 68.903a10.175 10.175 0 1 0 19.474 5.905zm-3.48 203.36 27.179-66.654a10.186 10.186 0 1 0-18.869-7.684l-27.178 66.674a10.183 10.183 0 1 0 18.869 7.664zm0.783 203.7 25.77-67.221a10.187 10.187 0 1 0-19.025-7.293l-25.75 67.221a10.178 10.178 0 1 0 19.005 7.293zm4.712 203.74 17.089-69.939a10.174 10.174 0 1 0-19.768-4.83l-17.089 69.979a10.175 10.175 0 1 0 19.768 4.83zm7.684 202.52 2.307-71.953a10.172 10.172 0 1 0-20.334-0.645l-2.347 71.953a10.192 10.192 0 1 0 20.374 0.645zm8.799 200.2-15.799-70.233a10.18 10.18 0 1 0-19.865 4.458l15.818 70.233a10.18 10.18 0 1 0 19.865-4.458zm7.88 197.91-33.357-63.8a10.18 10.18 0 1 0-18.047 9.425l33.356 63.8a10.18 10.18 0 1 0 18.047-9.425zm5.513 197.01-47.024-54.493a10.175 10.175 0 1 0-15.407 13.296l47.024 54.512a10.176 10.176 0 1 0 15.407-13.295zm3.128 197.87-55.822-45.479a10.18 10.18 0 1 0-12.865 15.779l55.822 45.48a10.187 10.187 0 1 0 12.865-15.8zm1.447 199.63-60.593-38.89a10.183 10.183 0 1 0-10.988 17.148l60.593 38.87a10.175 10.175 0 1 0 10.988-17.128zm0.606 201.33-62.9-34.999a10.18 10.18 0 1 0-9.893 17.793l62.9 34.999a10.18 10.18 0 1 0 9.893-17.793zm0.294 202.31-64.132-32.731a10.183 10.183 0 1 0-9.249 18.145l64.132 32.711a10.174 10.174 0 1 0 9.249-18.125zm0.176 202.66-64.915-31.088a10.188 10.188 0 1 0-8.798 18.38l64.914 31.088a10.188 10.188 0 1 0 8.799-18.38zm0.098 203.05-65.384-30.11a10.192 10.192 0 1 0-8.525 18.515l65.384 30.111a10.192 10.192 0 1 0 8.525-18.516zm0 203.46-65.501-29.837a10.18 10.18 0 1 0-8.427 18.536l65.5 29.837a10.185 10.185 0 1 0 8.447-18.536zm-0.02 203.89-65.286-30.346a10.178 10.178 0 1 0-8.584 18.458l65.286 30.365a10.187 10.187 0 1 0 8.584-18.477zm-0.118 204.3-64.718-31.557a10.179 10.179 0 1 0-8.916 18.301l64.718 31.558a10.179 10.179 0 1 0 8.916-18.302zm-0.195 204.68-63.76-33.435a10.189 10.189 0 1 0-9.464 18.047l63.74 33.435a10.189 10.189 0 1 0 9.464-18.047zm-0.45 205.46-61.981-36.622a10.186 10.186 0 1 0-10.363 17.538l61.981 36.603a10.177 10.177 0 1 0 10.363-17.52zm-1.114 207.12-58.071-42.528a10.184 10.184 0 1 0-12.045 16.424l58.071 42.527a10.184 10.184 0 1 0 12.045-16.424z" style="fill:#2ec27e"/>
</svg>
